<?xml version="1.0" encoding="utf-8"?>
<!-- Generator: Adobe Illustrator 22.0.0, SVG Export Plug-In . SVG Version: 6.00 Build 0)  -->
<svg version="1.1" id="图层_1" xmlns="http://www.w3.org/2000/svg" xmlns:xlink="http://www.w3.org/1999/xlink" x="0px" y="0px"
	 viewBox="0 0 150 150" style="enable-background:new 0 0 150 150;" xml:space="preserve">
<style type="text/css">
	.st0{fill:#939393;}
</style>
<g>
	<g>
		<g>
			<path class="st0" d="M87.6,111l-0.7-0.7c-1.8-1.8-1.8-4.6,0-6.4l36-36c1.8-1.8,4.6-1.8,6.4,0l0.7,0.7c1.8,1.8,1.8,4.6,0,6.4
				l-36,36C92.3,112.8,89.4,112.8,87.6,111z"/>
		</g>
		<g>
			<path class="st0" d="M123,75L87,39c-1.8-1.8-1.8-4.6,0-6.4l0.7-0.7c1.8-1.8,4.6-1.8,6.4,0l36,36c1.8,1.8,1.8,4.6,0,6.4l-0.7,0.7
				C127.6,76.8,124.7,76.8,123,75z"/>
		</g>
	</g>
	<circle class="st0" cx="93.5" cy="71.5" r="7.5"/>
	<circle class="st0" cx="71.5" cy="71.5" r="7.5"/>
	<circle class="st0" cx="49.5" cy="71.5" r="7.5"/>
	<circle class="st0" cx="27.5" cy="71.5" r="7.5"/>
</g>
</svg>
