<?xml version="1.0" encoding="utf-8"?>
<!-- Generator: Adobe Illustrator 22.0.0, SVG Export Plug-In . SVG Version: 6.00 Build 0)  -->
<svg version="1.1" id="图层_1" xmlns="http://www.w3.org/2000/svg" xmlns:xlink="http://www.w3.org/1999/xlink" x="0px" y="0px"
	 viewBox="0 0 200 200" style="enable-background:new 0 0 200 200;" xml:space="preserve">
<style type="text/css">
	.st0{fill:none;stroke:#FFFFFF;stroke-width:16;stroke-miterlimit:10;}
</style>
<path class="st0" d="M174.9,104.6c-2.6-9.6,3.1-19.5,12.7-22c0.3-0.1,0.7-0.1,1-0.2c-0.4-1.9-0.8-3.8-1.3-5.6
	c-5.1-19.1-16-35-30.2-46.6c-5.5,6.7-15.2,8.6-22.9,4.2c-7.3-4.2-10.5-12.8-8.3-20.6c-15.4-4.6-32.2-5.1-48.8-0.6
	c-1.8,0.5-3.5,1-5.2,1.6c0.2,0.5,0.3,0.9,0.4,1.4c2.6,9.6-3.1,19.5-12.7,22c-7,1.9-14.1-0.6-18.5-5.9c-14.9,13-25.1,30.7-29,50.1
	c6.5,1.3,12,6.1,13.9,13c2.6,9.6-3.1,19.5-12.7,22c-0.4,0.1-0.7,0.2-1.1,0.2c0.4,1.9,0.8,3.8,1.3,5.7c4.8,17.8,14.6,33,27.5,44.3
	c5.5-6.3,14.9-8.1,22.5-3.7c7.6,4.4,10.7,13.4,8.1,21.3c16.3,5.5,34.3,6.5,52.1,1.7c2-0.5,4-1.2,5.9-1.8c-0.1-0.2-0.2-0.5-0.2-0.7
	c-2.6-9.6,3.1-19.5,12.7-22c6.7-1.8,13.4,0.4,17.8,5.1c14.7-13,24.8-30.6,28.7-49.9C182.3,116.3,176.8,111.4,174.9,104.6z"/>
<circle class="st0" cx="99.7" cy="99.9" r="38.7"/>
</svg>
