<?xml version="1.0" encoding="utf-8"?>
<!-- Generator: Adobe Illustrator 22.0.0, SVG Export Plug-In . SVG Version: 6.00 Build 0)  -->
<svg version="1.1" id="图层_1" xmlns="http://www.w3.org/2000/svg" xmlns:xlink="http://www.w3.org/1999/xlink" x="0px" y="0px"
	 viewBox="0 0 150 150" style="enable-background:new 0 0 150 150;" xml:space="preserve">
<style type="text/css">
	.st0{fill:#FFFFFF;}
</style>
<g>
	<g>
		<g>
			<path class="st0" d="M130,102v3c0,14.3-11.7,26-26,26h-1c-3.3,0-6,2.7-6,6v7c0,3.3,2.7,6,6,6h11c19.8,0,36-16.2,36-36v-12
				c0-3.3-2.7-6-6-6h-8C132.7,96,130,98.7,130,102z"/>
		</g>
		<g>
			<path class="st0" d="M130,47L130,47c0,3.3,2.7,6,6,6h8c3.3,0,6-2.7,6-6V36c0-19.8-16.2-36-36-36h-11c-3.3,0-6,2.7-6,6v9
				c0,3.3,2.7,6,6,6h1C118.3,21,130,32.7,130,47z"/>
		</g>
	</g>
	<g>
		<g>
			<path class="st0" d="M20,47L20,47c0-14.3,11.7-26,26-26h2c3.3,0,6-2.7,6-6V6c0-3.3-2.7-6-6-6H36C16.2,0,0,16.2,0,36v11
				c0,3.3,2.7,6,6,6h8C17.3,53,20,50.3,20,47z"/>
		</g>
		<g>
			<path class="st0" d="M20,105v-3c0-3.3-2.7-6-6-6H6c-3.3,0-6,2.7-6,6v12c0,19.8,16.2,36,36,36h12c3.3,0,6-2.7,6-6v-7
				c0-3.3-2.7-6-6-6h-2C31.7,131,20,119.3,20,105z"/>
		</g>
	</g>
	<path class="st0" d="M144,83H6c-3.3,0-6-2.7-6-6v-5c0-3.3,2.7-6,6-6h138c3.3,0,6,2.7,6,6v5C150,80.3,147.3,83,144,83z"/>
</g>
</svg>
